<?xml version="1.0" encoding="UTF-8" standalone="no"?>
<!DOCTYPE svg PUBLIC "-//W3C//DTD SVG 1.1//EN"
 "http://www.w3.org/Graphics/SVG/1.1/DTD/svg11.dtd">
<!-- Generated by graphviz version 2.43.0 (0)
 -->
<!-- Title: G Pages: 1 -->
<svg width="2826pt" height="344pt"
 viewBox="0.00 0.00 2826.00 344.00" xmlns="http://www.w3.org/2000/svg" xmlns:xlink="http://www.w3.org/1999/xlink">
<g id="graph0" class="graph" transform="scale(1 1) rotate(0) translate(4 340)">
<title>G</title>
<polygon fill="white" stroke="transparent" points="-4,4 -4,-340 2822,-340 2822,4 -4,4"/>
<g id="clust1" class="cluster">
<title>cluster1</title>
<polygon fill="none" stroke="black" points="142,-172 142,-246 339,-246 339,-172 142,-172"/>
<text text-anchor="middle" x="240.5" y="-230.8" font-family="Times,serif" font-size="14.00">org.apache.karaf.diagnostic.core</text>
</g>
<g id="clust2" class="cluster">
<title>cluster10</title>
<polygon fill="none" stroke="black" points="102,-254 102,-328 272,-328 272,-254 102,-254"/>
<text text-anchor="middle" x="187" y="-312.8" font-family="Times,serif" font-size="14.00">org.apache.karaf.diagnostic</text>
</g>
<g id="clust3" class="cluster">
<title>cluster11</title>
<polygon fill="none" stroke="black" points="2316,-90 2316,-164 2399,-164 2399,-90 2316,-90"/>
<text text-anchor="middle" x="2357.5" y="-148.8" font-family="Times,serif" font-size="14.00">org.osgi.util</text>
</g>
<g id="clust4" class="cluster">
<title>cluster12</title>
<polygon fill="none" stroke="black" points="2407,-90 2407,-164 2516,-164 2516,-90 2407,-90"/>
<text text-anchor="middle" x="2461.5" y="-148.8" font-family="Times,serif" font-size="14.00">org.apache.karaf</text>
</g>
<g id="clust5" class="cluster">
<title>cluster13</title>
<polygon fill="none" stroke="black" points="8,-90 8,-164 112,-164 112,-90 8,-90"/>
<text text-anchor="middle" x="60" y="-148.8" font-family="Times,serif" font-size="14.00">com.sun</text>
</g>
<g id="clust6" class="cluster">
<title>cluster14</title>
<polygon fill="none" stroke="black" points="1283,-90 1283,-164 1587,-164 1587,-90 1283,-90"/>
<text text-anchor="middle" x="1435" y="-148.8" font-family="Times,serif" font-size="14.00">org.osgi.framework.hooks</text>
</g>
<g id="clust7" class="cluster">
<title>cluster15</title>
<polygon fill="none" stroke="black" points="1492,-254 1492,-328 1562,-328 1562,-254 1492,-254"/>
<text text-anchor="middle" x="1527" y="-312.8" font-family="Times,serif" font-size="14.00">main</text>
</g>
<g id="clust8" class="cluster">
<title>cluster16</title>
<polygon fill="none" stroke="black" points="1595,-90 1595,-164 1775,-164 1775,-90 1595,-90"/>
<text text-anchor="middle" x="1685" y="-148.8" font-family="Times,serif" font-size="14.00">org.osgi.framework.startlevel</text>
</g>
<g id="clust9" class="cluster">
<title>cluster17</title>
<polygon fill="none" stroke="black" points="520,-172 520,-246 682,-246 682,-172 520,-172"/>
<text text-anchor="middle" x="601" y="-230.8" font-family="Times,serif" font-size="14.00">org.apache.karaf.jaas.boot</text>
</g>
<g id="clust10" class="cluster">
<title>cluster18</title>
<polygon fill="none" stroke="black" points="310,-90 310,-164 557,-164 557,-90 310,-90"/>
<text text-anchor="middle" x="433.5" y="-148.8" font-family="Times,serif" font-size="14.00">org.osgi</text>
</g>
<g id="clust11" class="cluster">
<title>cluster19</title>
<polygon fill="none" stroke="black" points="232,-90 232,-164 302,-164 302,-90 232,-90"/>
<text text-anchor="middle" x="267" y="-148.8" font-family="Times,serif" font-size="14.00">sun</text>
</g>
<g id="clust12" class="cluster">
<title>cluster2</title>
<polygon fill="none" stroke="black" points="2524,-90 2524,-164 2690,-164 2690,-90 2524,-90"/>
<text text-anchor="middle" x="2607" y="-148.8" font-family="Times,serif" font-size="14.00">org.osgi.framework.wiring</text>
</g>
<g id="clust13" class="cluster">
<title>cluster3</title>
<polygon fill="none" stroke="black" points="879,-90 879,-164 1275,-164 1275,-90 879,-90"/>
<text text-anchor="middle" x="1077" y="-148.8" font-family="Times,serif" font-size="14.00">org.osgi.framework</text>
</g>
<g id="clust14" class="cluster">
<title>cluster4</title>
<polygon fill="none" stroke="black" points="1783,-90 1783,-164 2308,-164 2308,-90 1783,-90"/>
<text text-anchor="middle" x="2045.5" y="-148.8" font-family="Times,serif" font-size="14.00">org.osgi.service</text>
</g>
<g id="clust15" class="cluster">
<title>cluster5</title>
<polygon fill="none" stroke="black" points="120,-90 120,-164 224,-164 224,-90 120,-90"/>
<text text-anchor="middle" x="172" y="-148.8" font-family="Times,serif" font-size="14.00">javax</text>
</g>
<g id="clust16" class="cluster">
<title>cluster6</title>
<polygon fill="none" stroke="black" points="2698,-90 2698,-164 2810,-164 2810,-90 2698,-90"/>
<text text-anchor="middle" x="2754" y="-148.8" font-family="Times,serif" font-size="14.00">org.osgi.resource</text>
</g>
<g id="clust17" class="cluster">
<title>cluster7</title>
<polygon fill="none" stroke="black" points="1020,-8 1020,-82 1314,-82 1314,-8 1020,-8"/>
<text text-anchor="middle" x="1167" y="-66.8" font-family="Times,serif" font-size="14.00">javax.security.auth</text>
</g>
<g id="clust18" class="cluster">
<title>cluster8</title>
<polygon fill="none" stroke="black" points="716,-172 716,-246 850,-246 850,-172 716,-172"/>
<text text-anchor="middle" x="783" y="-230.8" font-family="Times,serif" font-size="14.00">org.apache.karaf.jaas</text>
</g>
<g id="clust19" class="cluster">
<title>cluster9</title>
<polygon fill="none" stroke="black" points="671,-90 671,-164 765,-164 765,-90 671,-90"/>
<text text-anchor="middle" x="718" y="-148.8" font-family="Times,serif" font-size="14.00">javax.security</text>
</g>
<!-- node21 -->
<g id="node1" class="node">
<title>node21</title>
<polygon fill="none" stroke="black" points="214,-298 160,-298 160,-262 214,-262 214,-298"/>
<text text-anchor="middle" x="187" y="-275.8" font-family="Times,serif" font-size="14.00">core</text>
</g>
<!-- node35 -->
<g id="node2" class="node">
<title>node35</title>
<polygon fill="none" stroke="black" points="294,-134 240,-134 240,-98 294,-98 294,-134"/>
<text text-anchor="middle" x="267" y="-111.8" font-family="Times,serif" font-size="14.00">misc</text>
</g>
<!-- node21&#45;&gt;node35 -->
<g id="edge1" class="edge">
<title>node21&#45;&gt;node35</title>
<path fill="none" stroke="black" d="M214.26,-277.25C254.58,-274.04 327.09,-265.62 343,-246 363.71,-220.45 363.65,-197.6 343,-172 332.43,-158.91 320.38,-172.73 306,-164 297.12,-158.61 289.33,-150.46 283.09,-142.46"/>
<polygon fill="black" stroke="black" points="285.87,-140.33 277.16,-134.29 280.2,-144.44 285.87,-140.33"/>
</g>
<!-- node33 -->
<g id="node4" class="node">
<title>node33</title>
<polygon fill="none" stroke="black" points="476.92,-134 399.08,-134 399.08,-98 476.92,-98 476.92,-134"/>
<text text-anchor="middle" x="438" y="-111.8" font-family="Times,serif" font-size="14.00">framework</text>
</g>
<!-- node21&#45;&gt;node33 -->
<g id="edge5" class="edge">
<title>node21&#45;&gt;node33</title>
<path fill="none" stroke="black" d="M214.15,-276.72C257.6,-272.62 340.29,-262.82 364,-246 399.03,-221.14 419.79,-174.1 430.02,-144.22"/>
<polygon fill="black" stroke="black" points="433.44,-145.02 433.21,-134.43 426.79,-142.85 433.44,-145.02"/>
</g>
<!-- node1 -->
<g id="node11" class="node">
<title>node1</title>
<polygon fill="none" stroke="black" points="219.49,-216 154.51,-216 154.51,-180 219.49,-180 219.49,-216"/>
<text text-anchor="middle" x="187" y="-193.8" font-family="Times,serif" font-size="14.00">common</text>
</g>
<!-- node21&#45;&gt;node1 -->
<g id="edge16" class="edge">
<title>node21&#45;&gt;node1</title>
<path fill="none" stroke="black" d="M187,-261.64C187,-251.3 187,-237.94 187,-226.22"/>
<polygon fill="black" stroke="black" points="190.5,-226.05 187,-216.05 183.5,-226.05 190.5,-226.05"/>
</g>
<!-- node24 -->
<g id="node12" class="node">
<title>node24</title>
<polygon fill="none" stroke="black" points="103.53,-134 16.47,-134 16.47,-98 103.53,-98 103.53,-134"/>
<text text-anchor="middle" x="60" y="-111.8" font-family="Times,serif" font-size="14.00">management</text>
</g>
<!-- node21&#45;&gt;node24 -->
<g id="edge34" class="edge">
<title>node21&#45;&gt;node24</title>
<path fill="none" stroke="black" d="M159.75,-269.23C147.65,-263.84 133.93,-256.15 124,-246 95.35,-216.71 77.15,-172.06 67.77,-143.72"/>
<polygon fill="black" stroke="black" points="71.07,-142.54 64.71,-134.07 64.4,-144.66 71.07,-142.54"/>
</g>
<!-- node13 -->
<g id="node19" class="node">
<title>node13</title>
<polygon fill="none" stroke="black" points="215.53,-134 128.47,-134 128.47,-98 215.53,-98 215.53,-134"/>
<text text-anchor="middle" x="172" y="-111.8" font-family="Times,serif" font-size="14.00">management</text>
</g>
<!-- node21&#45;&gt;node13 -->
<g id="edge28" class="edge">
<title>node21&#45;&gt;node13</title>
<path fill="none" stroke="black" d="M159.96,-267.26C151.35,-262.07 142.82,-255.05 138,-246 122.55,-216.97 129.01,-203.64 138,-172 140.95,-161.63 146.46,-151.31 152.21,-142.45"/>
<polygon fill="black" stroke="black" points="155.15,-144.35 157.95,-134.13 149.39,-140.38 155.15,-144.35"/>
</g>
<!-- node31 -->
<g id="node3" class="node">
<title>node31</title>
<polygon fill="none" stroke="black" points="647.76,-216 582.24,-216 582.24,-180 647.76,-180 647.76,-216"/>
<text text-anchor="middle" x="615" y="-193.8" font-family="Times,serif" font-size="14.00">principal</text>
</g>
<!-- node31&#45;&gt;node33 -->
<g id="edge2" class="edge">
<title>node31&#45;&gt;node33</title>
<path fill="none" stroke="black" d="M582.24,-193.42C555.05,-189.36 516.12,-180.95 486,-164 475.83,-158.28 466.28,-149.85 458.42,-141.71"/>
<polygon fill="black" stroke="black" points="460.77,-139.09 451.43,-134.08 455.61,-143.82 460.77,-139.09"/>
</g>
<!-- node16 -->
<g id="node13" class="node">
<title>node16</title>
<polygon fill="none" stroke="black" points="1234.14,-52 1171.86,-52 1171.86,-16 1234.14,-16 1234.14,-52"/>
<text text-anchor="middle" x="1203" y="-29.8" font-family="Times,serif" font-size="14.00">callback</text>
</g>
<!-- node31&#45;&gt;node16 -->
<g id="edge10" class="edge">
<title>node31&#45;&gt;node16</title>
<path fill="none" stroke="black" d="M628.86,-179.76C632.45,-174.84 636.1,-169.36 639,-164 655.71,-133.06 638.23,-110.22 667,-90 689.55,-74.15 1138.08,-93.76 1163,-82 1172.88,-77.34 1181.24,-68.93 1187.72,-60.5"/>
<polygon fill="black" stroke="black" points="1190.67,-62.39 1193.56,-52.2 1184.94,-58.36 1190.67,-62.39"/>
</g>
<!-- node20 -->
<g id="node20" class="node">
<title>node20</title>
<polygon fill="none" stroke="black" points="745,-134 691,-134 691,-98 745,-98 745,-134"/>
<text text-anchor="middle" x="718" y="-111.8" font-family="Times,serif" font-size="14.00">auth</text>
</g>
<!-- node31&#45;&gt;node20 -->
<g id="edge20" class="edge">
<title>node31&#45;&gt;node20</title>
<path fill="none" stroke="black" d="M643.96,-179.91C651.64,-175.03 659.79,-169.54 667,-164 675.88,-157.18 685.04,-149.11 693.1,-141.6"/>
<polygon fill="black" stroke="black" points="695.9,-143.77 700.75,-134.35 691.09,-138.69 695.9,-143.77"/>
</g>
<!-- node18 -->
<g id="node22" class="node">
<title>node18</title>
<polygon fill="none" stroke="black" points="1082,-52 1028,-52 1028,-16 1082,-16 1082,-52"/>
<text text-anchor="middle" x="1055" y="-29.8" font-family="Times,serif" font-size="14.00">login</text>
</g>
<!-- node31&#45;&gt;node18 -->
<g id="edge38" class="edge">
<title>node31&#45;&gt;node18</title>
<path fill="none" stroke="black" d="M605.54,-179.81C594.12,-156.47 579.01,-114.82 601,-90 628.55,-58.91 914.55,-41.89 1017.96,-36.72"/>
<polygon fill="black" stroke="black" points="1018.13,-40.21 1027.95,-36.23 1017.79,-33.22 1018.13,-40.21"/>
</g>
<!-- node17 -->
<g id="node23" class="node">
<title>node17</title>
<polygon fill="none" stroke="black" points="1154,-52 1100,-52 1100,-16 1154,-16 1154,-52"/>
<text text-anchor="middle" x="1127" y="-29.8" font-family="Times,serif" font-size="14.00">spi</text>
</g>
<!-- node31&#45;&gt;node17 -->
<g id="edge35" class="edge">
<title>node31&#45;&gt;node17</title>
<path fill="none" stroke="black" d="M613.04,-179.63C611.38,-155.27 612.59,-111.53 639,-90 658.47,-74.13 1068.58,-93.32 1091,-82 1100.26,-77.33 1107.82,-69.03 1113.57,-60.7"/>
<polygon fill="black" stroke="black" points="1116.58,-62.48 1118.91,-52.15 1110.64,-58.77 1116.58,-62.48"/>
</g>
<!-- node15 -->
<g id="node6" class="node">
<title>node15</title>
<polygon fill="none" stroke="black" points="1306,-52 1252,-52 1252,-16 1306,-16 1306,-52"/>
<text text-anchor="middle" x="1279" y="-29.8" font-family="Times,serif" font-size="14.00">x500</text>
</g>
<!-- node33&#45;&gt;node15 -->
<g id="edge23" class="edge">
<title>node33&#45;&gt;node15</title>
<path fill="none" stroke="black" d="M465.55,-97.87C472.03,-94.64 479.07,-91.73 486,-90 506.4,-84.89 1224.19,-91.41 1243,-82 1252.28,-77.36 1259.84,-69.07 1265.59,-60.73"/>
<polygon fill="black" stroke="black" points="1268.6,-62.51 1270.93,-52.18 1262.66,-58.81 1268.6,-62.51"/>
</g>
<!-- node34 -->
<g id="node5" class="node">
<title>node34</title>
<polygon fill="none" stroke="black" points="381.92,-134 318.08,-134 318.08,-98 381.92,-98 381.92,-134"/>
<text text-anchor="middle" x="350" y="-111.8" font-family="Times,serif" font-size="14.00">resource</text>
</g>
<!-- node34&#45;&gt;node15 -->
<g id="edge3" class="edge">
<title>node34&#45;&gt;node15</title>
<path fill="none" stroke="black" d="M372.66,-97.89C378.07,-94.66 384.03,-91.74 390,-90 412.75,-83.36 1221.8,-92.59 1243,-82 1252.28,-77.36 1259.84,-69.08 1265.59,-60.74"/>
<polygon fill="black" stroke="black" points="1268.61,-62.52 1270.93,-52.18 1262.67,-58.82 1268.61,-62.52"/>
</g>
<!-- node7 -->
<g id="node7" class="node">
<title>node7</title>
<polygon fill="none" stroke="black" points="964.91,-134 887.09,-134 887.09,-98 964.91,-98 964.91,-134"/>
<text text-anchor="middle" x="926" y="-111.8" font-family="Times,serif" font-size="14.00">namespace</text>
</g>
<!-- node7&#45;&gt;node15 -->
<g id="edge4" class="edge">
<title>node7&#45;&gt;node15</title>
<path fill="none" stroke="black" d="M953.57,-97.97C960.05,-94.74 967.09,-91.8 974,-90 1002.94,-82.46 1216.39,-95.63 1243,-82 1252.23,-77.27 1259.78,-68.96 1265.54,-60.64"/>
<polygon fill="black" stroke="black" points="1268.54,-62.43 1270.89,-52.1 1262.61,-58.72 1268.54,-62.43"/>
</g>
<!-- node32 -->
<g id="node8" class="node">
<title>node32</title>
<polygon fill="none" stroke="black" points="549,-134 495,-134 495,-98 549,-98 549,-134"/>
<text text-anchor="middle" x="522" y="-111.8" font-family="Times,serif" font-size="14.00">dto</text>
</g>
<!-- node32&#45;&gt;node15 -->
<g id="edge6" class="edge">
<title>node32&#45;&gt;node15</title>
<path fill="none" stroke="black" d="M549.09,-109.02C578.09,-102.92 625.54,-93.84 667,-90 682.93,-88.52 1228.7,-89.18 1243,-82 1252.27,-77.34 1259.83,-69.05 1265.58,-60.72"/>
<polygon fill="black" stroke="black" points="1268.59,-62.5 1270.92,-52.16 1262.65,-58.79 1268.59,-62.5"/>
</g>
<!-- node26 -->
<g id="node9" class="node">
<title>node26</title>
<polygon fill="none" stroke="black" points="1578.64,-134 1523.36,-134 1523.36,-98 1578.64,-98 1578.64,-134"/>
<text text-anchor="middle" x="1551" y="-111.8" font-family="Times,serif" font-size="14.00">service</text>
</g>
<!-- node26&#45;&gt;node15 -->
<g id="edge7" class="edge">
<title>node26&#45;&gt;node15</title>
<path fill="none" stroke="black" d="M1528.92,-97.75C1524.49,-94.85 1519.73,-92.1 1515,-90 1448.51,-60.47 1364.17,-45.74 1316.43,-39.29"/>
<polygon fill="black" stroke="black" points="1316.61,-35.78 1306.25,-37.96 1315.71,-42.72 1316.61,-35.78"/>
</g>
<!-- node4 -->
<g id="node10" class="node">
<title>node4</title>
<polygon fill="none" stroke="black" points="1267,-134 1213,-134 1213,-98 1267,-98 1267,-134"/>
<text text-anchor="middle" x="1240" y="-111.8" font-family="Times,serif" font-size="14.00">wiring</text>
</g>
<!-- node4&#45;&gt;node15 -->
<g id="edge8" class="edge">
<title>node4&#45;&gt;node15</title>
<path fill="none" stroke="black" d="M1248.46,-97.64C1253.66,-86.98 1260.42,-73.12 1266.25,-61.15"/>
<polygon fill="black" stroke="black" points="1269.45,-62.57 1270.69,-52.05 1263.16,-59.51 1269.45,-62.57"/>
</g>
<!-- node1&#45;&gt;node35 -->
<g id="edge17" class="edge">
<title>node1&#45;&gt;node35</title>
<path fill="none" stroke="black" d="M209.82,-179.97C215.94,-175.05 222.4,-169.51 228,-164 234.73,-157.37 241.5,-149.66 247.47,-142.42"/>
<polygon fill="black" stroke="black" points="250.51,-144.23 254.06,-134.24 245.06,-139.84 250.51,-144.23"/>
</g>
<!-- node1&#45;&gt;node33 -->
<g id="edge19" class="edge">
<title>node1&#45;&gt;node33</title>
<path fill="none" stroke="black" d="M219.64,-197.76C261.58,-197.43 335.58,-192.35 391,-164 401.54,-158.61 411.18,-149.99 418.95,-141.6"/>
<polygon fill="black" stroke="black" points="421.6,-143.89 425.53,-134.05 416.32,-139.29 421.6,-143.89"/>
</g>
<!-- node1&#45;&gt;node1 -->
<g id="edge29" class="edge">
<title>node1&#45;&gt;node1</title>
<path fill="none" stroke="black" d="M219.54,-213.36C229.6,-213.05 237.5,-207.93 237.5,-198 237.5,-191.79 234.41,-187.47 229.64,-185.02"/>
<polygon fill="black" stroke="black" points="230.08,-181.52 219.54,-182.64 228.47,-188.34 230.08,-181.52"/>
</g>
<!-- node1&#45;&gt;node24 -->
<g id="edge9" class="edge">
<title>node1&#45;&gt;node24</title>
<path fill="none" stroke="black" d="M154.25,-183.94C141.88,-178.46 127.93,-171.59 116,-164 105.48,-157.31 94.79,-148.83 85.61,-140.93"/>
<polygon fill="black" stroke="black" points="87.78,-138.18 77.97,-134.18 83.15,-143.42 87.78,-138.18"/>
</g>
<!-- node1&#45;&gt;node13 -->
<g id="edge18" class="edge">
<title>node1&#45;&gt;node13</title>
<path fill="none" stroke="black" d="M183.75,-179.64C181.81,-169.3 179.3,-155.94 177.1,-144.22"/>
<polygon fill="black" stroke="black" points="180.48,-143.23 175.2,-134.05 173.6,-144.52 180.48,-143.23"/>
</g>
<!-- node27 -->
<g id="node14" class="node">
<title>node27</title>
<polygon fill="none" stroke="black" points="1505.59,-134 1444.41,-134 1444.41,-98 1505.59,-98 1505.59,-134"/>
<text text-anchor="middle" x="1475" y="-111.8" font-family="Times,serif" font-size="14.00">resolver</text>
</g>
<!-- node27&#45;&gt;node15 -->
<g id="edge11" class="edge">
<title>node27&#45;&gt;node15</title>
<path fill="none" stroke="black" d="M1450.33,-97.97C1445.67,-95.11 1440.77,-92.33 1436,-90 1396.53,-70.76 1348.56,-54.97 1316.11,-45.33"/>
<polygon fill="black" stroke="black" points="1316.74,-41.86 1306.15,-42.41 1314.77,-48.58 1316.74,-41.86"/>
</g>
<!-- node30 -->
<g id="node15" class="node">
<title>node30</title>
<polygon fill="none" stroke="black" points="1657,-134 1603,-134 1603,-98 1657,-98 1657,-134"/>
<text text-anchor="middle" x="1630" y="-111.8" font-family="Times,serif" font-size="14.00">dto</text>
</g>
<!-- node30&#45;&gt;node15 -->
<g id="edge12" class="edge">
<title>node30&#45;&gt;node15</title>
<path fill="none" stroke="black" d="M1606.46,-97.83C1601.54,-94.84 1596.24,-92.05 1591,-90 1496.51,-53.1 1376.24,-40.82 1316.37,-36.84"/>
<polygon fill="black" stroke="black" points="1316.46,-33.34 1306.26,-36.21 1316.02,-40.33 1316.46,-33.34"/>
</g>
<!-- node12 -->
<g id="node16" class="node">
<title>node12</title>
<polygon fill="none" stroke="black" points="1845,-134 1791,-134 1791,-98 1845,-98 1845,-134"/>
<text text-anchor="middle" x="1818" y="-111.8" font-family="Times,serif" font-size="14.00">url</text>
</g>
<!-- node12&#45;&gt;node15 -->
<g id="edge13" class="edge">
<title>node12&#45;&gt;node15</title>
<path fill="none" stroke="black" d="M1794.98,-97.81C1789.93,-94.75 1784.46,-91.93 1779,-90 1693.41,-59.74 1417.1,-42.36 1316.27,-36.89"/>
<polygon fill="black" stroke="black" points="1316.41,-33.39 1306.24,-36.36 1316.04,-40.38 1316.41,-33.39"/>
</g>
<!-- node22 -->
<g id="node17" class="node">
<title>node22</title>
<polygon fill="none" stroke="black" points="2378.36,-134 2323.64,-134 2323.64,-98 2378.36,-98 2378.36,-134"/>
<text text-anchor="middle" x="2351" y="-111.8" font-family="Times,serif" font-size="14.00">tracker</text>
</g>
<!-- node22&#45;&gt;node15 -->
<g id="edge14" class="edge">
<title>node22&#45;&gt;node15</title>
<path fill="none" stroke="black" d="M2328.48,-97.83C2323.31,-94.68 2317.66,-91.82 2312,-90 2215.77,-59 1489.71,-39.99 1316.17,-35.85"/>
<polygon fill="black" stroke="black" points="1316.09,-32.35 1306.01,-35.61 1315.92,-39.35 1316.09,-32.35"/>
</g>
<!-- node23 -->
<g id="node18" class="node">
<title>node23</title>
<polygon fill="none" stroke="black" points="2469,-134 2415,-134 2415,-98 2469,-98 2469,-134"/>
<text text-anchor="middle" x="2442" y="-111.8" font-family="Times,serif" font-size="14.00">info</text>
</g>
<!-- node23&#45;&gt;node15 -->
<g id="edge15" class="edge">
<title>node23&#45;&gt;node15</title>
<path fill="none" stroke="black" d="M2419.49,-97.81C2414.32,-94.67 2408.67,-91.81 2403,-90 2297.69,-56.33 1499.78,-39.2 1316.46,-35.69"/>
<polygon fill="black" stroke="black" points="1316.32,-32.18 1306.25,-35.49 1316.18,-39.18 1316.32,-32.18"/>
</g>
<!-- node19 -->
<g id="node21" class="node">
<title>node19</title>
<polygon fill="none" stroke="black" points="810,-216 756,-216 756,-180 810,-180 810,-216"/>
<text text-anchor="middle" x="783" y="-193.8" font-family="Times,serif" font-size="14.00">boot</text>
</g>
<!-- node19&#45;&gt;node33 -->
<g id="edge36" class="edge">
<title>node19&#45;&gt;node33</title>
<path fill="none" stroke="black" d="M755.72,-188.31C736.46,-182.59 709.92,-175.52 686,-172 664,-168.76 506.42,-172.81 486,-164 474.85,-159.19 464.83,-150.51 456.86,-141.92"/>
<polygon fill="black" stroke="black" points="459.34,-139.43 450.15,-134.16 454.05,-144.01 459.34,-139.43"/>
</g>
<!-- node19&#45;&gt;node16 -->
<g id="edge39" class="edge">
<title>node19&#45;&gt;node16</title>
<path fill="none" stroke="black" d="M810.03,-185.63C820.4,-180.25 831.71,-173 840,-164 864.64,-137.23 844.54,-109.89 875,-90 901.81,-72.5 1134.13,-95.83 1163,-82 1172.86,-77.28 1181.21,-68.86 1187.69,-60.44"/>
<polygon fill="black" stroke="black" points="1190.63,-62.34 1193.54,-52.15 1184.91,-58.3 1190.63,-62.34"/>
</g>
<!-- node19&#45;&gt;node20 -->
<g id="edge30" class="edge">
<title>node19&#45;&gt;node20</title>
<path fill="none" stroke="black" d="M768.9,-179.64C759.98,-168.66 748.3,-154.29 738.38,-142.09"/>
<polygon fill="black" stroke="black" points="740.88,-139.6 731.85,-134.05 735.44,-144.02 740.88,-139.6"/>
</g>
<!-- node19&#45;&gt;node18 -->
<g id="edge21" class="edge">
<title>node19&#45;&gt;node18</title>
<path fill="none" stroke="black" d="M781.64,-179.92C780.78,-156.31 783.01,-113.93 807,-90 836.29,-60.78 955.89,-44.84 1017.66,-38.42"/>
<polygon fill="black" stroke="black" points="1018.18,-41.89 1027.78,-37.4 1017.48,-34.92 1018.18,-41.89"/>
</g>
<!-- node19&#45;&gt;node17 -->
<g id="edge22" class="edge">
<title>node19&#45;&gt;node17</title>
<path fill="none" stroke="black" d="M796.22,-179.88C799.88,-174.87 803.73,-169.31 807,-164 826.38,-132.51 813.76,-109.78 845,-90 868.11,-75.37 1066.68,-94.5 1091,-82 1100.23,-77.26 1107.77,-68.95 1113.53,-60.62"/>
<polygon fill="black" stroke="black" points="1116.54,-62.42 1118.88,-52.09 1110.6,-58.7 1116.54,-62.42"/>
</g>
<!-- node28 -->
<g id="node24" class="node">
<title>node28</title>
<polygon fill="none" stroke="black" points="1426.93,-134 1363.07,-134 1363.07,-98 1426.93,-98 1426.93,-134"/>
<text text-anchor="middle" x="1395" y="-111.8" font-family="Times,serif" font-size="14.00">weaving</text>
</g>
<!-- node28&#45;&gt;node15 -->
<g id="edge24" class="edge">
<title>node28&#45;&gt;node15</title>
<path fill="none" stroke="black" d="M1370.12,-97.84C1353.22,-86.19 1330.68,-70.64 1312.25,-57.93"/>
<polygon fill="black" stroke="black" points="1314.06,-54.93 1303.84,-52.13 1310.09,-60.69 1314.06,-54.93"/>
</g>
<!-- node3 -->
<g id="node25" class="node">
<title>node3</title>
<polygon fill="none" stroke="black" points="1194.81,-134 1127.19,-134 1127.19,-98 1194.81,-98 1194.81,-134"/>
<text text-anchor="middle" x="1161" y="-111.8" font-family="Times,serif" font-size="14.00">startlevel</text>
</g>
<!-- node3&#45;&gt;node15 -->
<g id="edge25" class="edge">
<title>node3&#45;&gt;node15</title>
<path fill="none" stroke="black" d="M1187.17,-98C1192.58,-95 1198.35,-92.15 1204,-90 1220.53,-83.69 1228.01,-91.4 1243,-82 1251.44,-76.71 1258.65,-68.69 1264.35,-60.76"/>
<polygon fill="black" stroke="black" points="1267.33,-62.6 1269.94,-52.33 1261.5,-58.74 1267.33,-62.6"/>
</g>
<!-- node9 -->
<g id="node26" class="node">
<title>node9</title>
<polygon fill="none" stroke="black" points="2300.47,-134 2193.53,-134 2193.53,-98 2300.47,-98 2300.47,-134"/>
<text text-anchor="middle" x="2247" y="-111.8" font-family="Times,serif" font-size="14.00">condpermadmin</text>
</g>
<!-- node9&#45;&gt;node15 -->
<g id="edge26" class="edge">
<title>node9&#45;&gt;node15</title>
<path fill="none" stroke="black" d="M2210.25,-97.93C2202.09,-94.78 2193.38,-91.89 2185,-90 2015.54,-51.76 1465.94,-38.59 1316.69,-35.67"/>
<polygon fill="black" stroke="black" points="1316.32,-32.17 1306.25,-35.47 1316.18,-39.16 1316.32,-32.17"/>
</g>
<!-- node8 -->
<g id="node27" class="node">
<title>node8</title>
<polygon fill="none" stroke="black" points="2175.81,-134 2108.19,-134 2108.19,-98 2175.81,-98 2175.81,-134"/>
<text text-anchor="middle" x="2142" y="-111.8" font-family="Times,serif" font-size="14.00">startlevel</text>
</g>
<!-- node8&#45;&gt;node15 -->
<g id="edge27" class="edge">
<title>node8&#45;&gt;node15</title>
<path fill="none" stroke="black" d="M2116.97,-97.89C2111.28,-94.75 2105.11,-91.87 2099,-90 1949.73,-44.35 1456.62,-36.56 1316.46,-35.25"/>
<polygon fill="black" stroke="black" points="1316.26,-31.75 1306.23,-35.17 1316.2,-38.75 1316.26,-31.75"/>
</g>
<!-- node5 -->
<g id="node28" class="node">
<title>node5</title>
<polygon fill="none" stroke="black" points="1109,-134 1055,-134 1055,-98 1109,-98 1109,-134"/>
<text text-anchor="middle" x="1082" y="-111.8" font-family="Times,serif" font-size="14.00">dto</text>
</g>
<!-- node5&#45;&gt;node15 -->
<g id="edge31" class="edge">
<title>node5&#45;&gt;node15</title>
<path fill="none" stroke="black" d="M1102.65,-97.87C1107.43,-94.72 1112.68,-91.85 1118,-90 1144.28,-80.84 1218.45,-95.11 1243,-82 1251.92,-77.24 1259.3,-69.19 1265.01,-61.09"/>
<polygon fill="black" stroke="black" points="1268.11,-62.74 1270.54,-52.43 1262.21,-58.97 1268.11,-62.74"/>
</g>
<!-- node2 -->
<g id="node29" class="node">
<title>node2</title>
<polygon fill="none" stroke="black" points="2586,-134 2532,-134 2532,-98 2586,-98 2586,-134"/>
<text text-anchor="middle" x="2559" y="-111.8" font-family="Times,serif" font-size="14.00">dto</text>
</g>
<!-- node2&#45;&gt;node15 -->
<g id="edge32" class="edge">
<title>node2&#45;&gt;node15</title>
<path fill="none" stroke="black" d="M2536.49,-97.79C2531.32,-94.65 2525.67,-91.8 2520,-90 2402.86,-52.84 1510.53,-38.25 1316.26,-35.5"/>
<polygon fill="black" stroke="black" points="1316.3,-32 1306.26,-35.36 1316.21,-39 1316.3,-32"/>
</g>
<!-- node10 -->
<g id="node30" class="node">
<title>node10</title>
<polygon fill="none" stroke="black" points="2090.35,-134 1993.65,-134 1993.65,-98 2090.35,-98 2090.35,-134"/>
<text text-anchor="middle" x="2042" y="-111.8" font-family="Times,serif" font-size="14.00">packageadmin</text>
</g>
<!-- node10&#45;&gt;node15 -->
<g id="edge33" class="edge">
<title>node10&#45;&gt;node15</title>
<path fill="none" stroke="black" d="M2007.37,-97.88C1999.83,-94.78 1991.77,-91.92 1984,-90 1855.46,-58.21 1442.98,-40.94 1316.33,-36.3"/>
<polygon fill="black" stroke="black" points="1316.12,-32.79 1306,-35.92 1315.87,-39.78 1316.12,-32.79"/>
</g>
<!-- node11 -->
<g id="node31" class="node">
<title>node11</title>
<polygon fill="none" stroke="black" points="1975.44,-134 1862.56,-134 1862.56,-98 1975.44,-98 1975.44,-134"/>
<text text-anchor="middle" x="1919" y="-111.8" font-family="Times,serif" font-size="14.00">permissionadmin</text>
</g>
<!-- node11&#45;&gt;node15 -->
<g id="edge37" class="edge">
<title>node11&#45;&gt;node15</title>
<path fill="none" stroke="black" d="M1879.66,-97.91C1871.32,-94.85 1862.47,-92 1854,-90 1655.18,-43.18 1408.73,-36.05 1316.31,-35.09"/>
<polygon fill="black" stroke="black" points="1316.1,-31.58 1306.07,-35 1316.04,-38.58 1316.1,-31.58"/>
</g>
<!-- node14 -->
<g id="node32" class="node">
<title>node14</title>
<polygon fill="none" stroke="black" points="2760,-134 2706,-134 2706,-98 2760,-98 2760,-134"/>
<text text-anchor="middle" x="2733" y="-111.8" font-family="Times,serif" font-size="14.00">dto</text>
</g>
<!-- node14&#45;&gt;node15 -->
<g id="edge40" class="edge">
<title>node14&#45;&gt;node15</title>
<path fill="none" stroke="black" d="M2710.5,-97.76C2705.33,-94.63 2699.68,-91.78 2694,-90 2559.28,-47.67 1526.63,-37.02 1316.32,-35.28"/>
<polygon fill="black" stroke="black" points="1316.13,-31.78 1306.1,-35.2 1316.07,-38.78 1316.13,-31.78"/>
</g>
<!-- node25 -->
<g id="node33" class="node">
<title>node25</title>
<polygon fill="none" stroke="black" points="1345.1,-134 1290.9,-134 1290.9,-98 1345.1,-98 1345.1,-134"/>
<text text-anchor="middle" x="1318" y="-111.8" font-family="Times,serif" font-size="14.00">bundle</text>
</g>
<!-- node25&#45;&gt;node15 -->
<g id="edge41" class="edge">
<title>node25&#45;&gt;node15</title>
<path fill="none" stroke="black" d="M1309.54,-97.64C1304.34,-86.98 1297.58,-73.12 1291.75,-61.15"/>
<polygon fill="black" stroke="black" points="1294.84,-59.51 1287.31,-52.05 1288.55,-62.57 1294.84,-59.51"/>
</g>
<!-- node6 -->
<g id="node34" class="node">
<title>node6</title>
<polygon fill="none" stroke="black" points="1037,-134 983,-134 983,-98 1037,-98 1037,-134"/>
<text text-anchor="middle" x="1010" y="-111.8" font-family="Times,serif" font-size="14.00">launch</text>
</g>
<!-- node6&#45;&gt;node15 -->
<g id="edge42" class="edge">
<title>node6&#45;&gt;node15</title>
<path fill="none" stroke="black" d="M1030.62,-97.78C1035.4,-94.64 1040.66,-91.79 1046,-90 1087.54,-76.06 1204.11,-102.19 1243,-82 1252.21,-77.22 1259.75,-68.9 1265.51,-60.58"/>
<polygon fill="black" stroke="black" points="1268.51,-62.38 1270.86,-52.05 1262.58,-58.66 1268.51,-62.38"/>
</g>
<!-- node29 -->
<g id="node35" class="node">
<title>node29</title>
<polygon fill="none" stroke="black" points="1554,-298 1500,-298 1500,-262 1554,-262 1554,-298"/>
</g>
</g>
</svg>
